<svg width="32" height="32" viewBox="0 0 32 32" fill="none" xmlns="http://www.w3.org/2000/svg">
<g clip-path="url(#clip0_123_337)">
<path d="M31.856 25.5055L31.6968 25.0256C31.3195 23.9044 30.0831 22.735 28.9471 22.4269L24.743 21.2784C23.6029 20.9682 21.9766 21.3853 21.1425 22.2194L19.6209 23.7409C14.0913 22.2467 9.75522 17.9105 8.26305 12.382L9.78466 10.8603C10.6188 10.0262 11.0358 8.40204 10.7256 7.26195L9.57925 3.05576C9.26908 1.91775 8.09753 0.681294 6.97844 0.308217L6.49853 0.146861C5.37728 -0.226217 3.77821 0.151086 2.94413 0.985161L0.668115 3.26326C0.261506 3.66772 0.00163314 4.82458 0.00163314 4.8288C-0.0779718 12.0549 2.75548 19.017 7.86697 24.1286C12.9659 29.2275 19.9019 32.0568 27.107 31.996C27.1447 31.996 28.3351 31.7403 28.7417 31.3358L31.0177 29.0598C31.8518 28.2258 32.229 26.6268 31.856 25.5055Z" fill="black"/>
</g>
<defs>
<clipPath id="clip0_123_337">
<rect width="32" height="32" fill="white"/>
</clipPath>
</defs>
</svg>
