<?xml version="1.0" standalone="no"?>
<!DOCTYPE svg PUBLIC "-//W3C//DTD SVG 20010904//EN"
 "http://www.w3.org/TR/2001/REC-SVG-20010904/DTD/svg10.dtd">
<svg version="1.0" xmlns="http://www.w3.org/2000/svg"
 width="260.000000pt" height="260.000000pt" viewBox="0 0 260.000000 260.000000"
 preserveAspectRatio="xMidYMid meet">
<metadata>
Created by potrace 1.14, written by Peter Selinger 2001-2017
</metadata>
<g transform="translate(0.000000,260.000000) scale(0.100000,-0.100000)"
fill="#000000" stroke="none">
<path d="M1291 1988 c-11 -42 -15 -93 -12 -133 1 -16 6 -12 25 18 28 45 41
124 25 143 -18 22 -26 17 -38 -28z"/>
<path d="M1040 1972 c0 -20 32 -127 42 -139 14 -17 37 -17 44 1 6 15 -42 126
-60 138 -14 10 -26 10 -26 0z"/>
<path d="M1517 1891 c-44 -56 -46 -59 -28 -75 16 -15 19 -15 33 1 22 26 68
108 68 121 0 27 -30 8 -73 -47z"/>
<path d="M874 1805 c-9 -22 13 -43 56 -55 37 -10 70 -5 70 10 0 13 -78 60
-100 60 -11 0 -23 -7 -26 -15z"/>
<path d="M1740 1802 c-33 -11 -80 -55 -80 -74 0 -18 5 -20 36 -15 45 7 74 32
74 63 0 26 -9 34 -30 26z"/>
<path d="M1404 1759 c-11 -18 -15 -77 -18 -269 -2 -102 -8 -199 -14 -217 -9
-27 -7 -36 9 -57 15 -18 18 -33 13 -63 -8 -50 -12 -53 -34 -23 -18 24 -41 97
-54 169 -5 29 -4 32 9 21 26 -21 40 -6 15 18 l-23 21 26 80 c34 102 37 163 10
199 -11 15 -32 28 -46 30 -20 2 -27 9 -28 25 -2 69 -19 86 -20 21 -1 -67 -8
-146 -14 -152 -5 -5 -10 156 -6 186 1 6 -2 12 -8 12 -5 0 -10 -33 -10 -72 -1
-40 -3 -84 -6 -97 -10 -52 -15 -30 -15 67 0 56 -3 102 -8 102 -4 0 -8 -15 -8
-32 -2 -105 -5 -141 -9 -137 -2 3 -5 34 -6 69 -1 36 -5 74 -10 85 l-8 20 -2
-20 c-5 -58 -8 -109 -10 -190 -3 -82 -1 -94 24 -136 15 -25 27 -50 27 -55 0
-5 -22 -21 -49 -36 -36 -20 -54 -38 -71 -73 -33 -68 -45 -46 -44 76 1 110 -6
120 -54 77 l-24 -23 6 23 c3 12 8 30 11 40 2 9 0 24 -5 32 -9 13 -13 12 -30
-8 -15 -18 -19 -37 -18 -75 2 -39 -5 -68 -26 -114 -16 -35 -32 -63 -36 -63 -8
0 3 78 19 136 9 33 8 41 -7 52 -45 35 -143 -23 -186 -110 -22 -45 -35 -56 -84
-80 -140 -67 -329 -114 -434 -106 -51 4 -65 9 -85 32 -32 38 -30 89 7 162 53
106 171 208 275 240 50 15 107 19 90 6 -18 -13 -65 -73 -65 -83 0 -13 77 41
109 75 30 32 62 119 50 137 -9 16 -9 15 -31 -32 -16 -35 -18 -36 -65 -34 -159
6 -346 -138 -403 -310 -53 -159 11 -260 165 -256 122 2 303 65 409 142 38 26
47 29 66 19 25 -14 37 -7 92 54 l38 41 -6 -60 c-5 -49 -3 -64 10 -74 13 -11
19 -11 32 -1 24 21 63 92 79 148 12 38 19 50 30 46 11 -5 15 -23 15 -69 0
-101 22 -135 73 -116 16 6 29 4 42 -5 12 -9 32 -12 51 -10 l32 6 -2 -171 c-1
-158 1 -172 19 -185 23 -17 27 -17 51 0 16 12 19 26 18 98 0 46 -4 135 -9 199
-7 99 -5 120 8 139 l16 23 6 -29 c24 -119 66 -187 108 -176 4 1 4 -51 1 -116
-6 -104 -5 -119 11 -132 25 -21 41 -21 61 1 19 21 22 73 10 199 -19 198 -20
188 25 243 l39 50 -5 -39 c-3 -21 -8 -49 -10 -61 -5 -21 17 -53 36 -53 5 0 23
21 40 48 27 41 30 43 24 17 -4 -16 -9 -41 -12 -54 -2 -14 -13 -31 -24 -39 -23
-16 -25 -45 -5 -62 10 -8 15 -34 16 -83 1 -117 11 -159 44 -180 43 -28 105
-11 91 25 -3 8 -26 24 -50 36 l-45 22 0 64 c0 107 6 122 56 141 64 24 136 85
164 138 13 25 34 50 45 55 21 10 21 9 8 -41 -7 -28 -13 -59 -13 -68 0 -9 -11
-29 -25 -45 -28 -33 -31 -49 -11 -61 10 -6 15 -35 18 -103 5 -141 37 -195 102
-171 36 14 34 33 -3 28 -25 -4 -31 -1 -42 24 -12 32 -19 131 -12 189 5 32 10
37 70 64 63 29 153 111 153 141 0 7 7 18 16 26 14 11 15 7 9 -42 -5 -42 -3
-58 8 -67 24 -20 65 6 97 61 l28 49 0 -33 c-1 -58 1 -65 25 -76 49 -23 118 32
161 128 26 55 33 89 25 119 -3 12 6 15 45 15 31 0 51 5 53 13 8 21 -93 20
-157 -3 -22 -8 -47 -12 -56 -8 -9 3 -27 -7 -46 -26 -19 -19 -37 -30 -46 -26
-9 3 -19 0 -24 -7 -14 -24 -8 -38 17 -38 27 0 28 -4 15 -35 -5 -11 -9 -14 -9
-7 -2 25 -20 11 -41 -32 -43 -89 -72 -79 -39 14 14 40 16 57 8 67 -16 19 -37
16 -44 -6 -8 -25 -35 -36 -35 -15 0 21 -71 88 -110 104 -23 9 -29 17 -24 29
17 41 16 59 -6 71 -27 14 -40 1 -40 -43 0 -27 -2 -28 -43 -26 -50 3 -77 -8
-56 -22 8 -5 23 -9 34 -9 38 -1 45 -12 33 -54 -8 -24 -22 -43 -40 -52 -24 -13
-28 -13 -28 0 0 21 -55 73 -102 97 -40 20 -41 23 -21 75 4 12 -22 44 -36 44
-13 0 -30 -47 -24 -69 5 -18 2 -19 -27 -11 -38 11 -94 -5 -70 -20 8 -6 24 -10
35 -10 42 -1 44 -12 20 -83 -12 -38 -25 -63 -27 -56 -2 7 -16 -8 -31 -32 l-26
-44 6 50 c3 28 12 69 19 93 15 54 -1 76 -53 70 l-33 -4 -1 46 c0 25 -2 59 -4
75 -2 17 -6 56 -10 88 -7 62 -38 147 -54 147 -5 0 -13 -5 -17 -11z m-81 -264
c-8 -36 -18 -65 -22 -65 -10 0 -1 128 11 159 l11 26 7 -27 c5 -17 2 -53 -7
-93z m-73 -110 c0 -14 -4 -25 -10 -25 -11 0 -14 33 -3 43 11 11 13 8 13 -18z
m510 -12 c36 -25 49 -45 50 -75 0 -18 -6 -29 -21 -33 -11 -4 -47 -22 -80 -40
-32 -19 -59 -31 -59 -27 0 8 13 57 36 140 16 57 31 65 74 35z m289 -7 c36 -23
56 -63 42 -83 -3 -5 -41 -28 -84 -51 -60 -32 -77 -38 -73 -24 2 9 14 54 26
100 15 54 27 82 36 82 8 0 32 -11 53 -24z m414 12 c12 -36 -51 -160 -96 -187
-48 -30 -43 48 9 150 21 42 29 49 53 49 16 0 31 -6 34 -12z m-1668 -34 c-25
-39 -67 -84 -87 -95 -38 -21 -17 23 38 78 56 56 81 65 49 17z m724 9 c-30 -40
-69 -83 -69 -78 0 19 31 75 47 84 27 16 37 13 22 -6z m-269 -32 c0 -5 -3 -17
-6 -26 -5 -12 -9 -14 -14 -4 -5 7 -6 18 -3 26 6 15 23 18 23 4z m-100 -113
c-12 -10 -30 -18 -40 -18 -35 0 -29 28 13 71 l42 42 3 -39 c3 -30 -1 -43 -18
-56z m630 17 c0 -7 -103 -81 -122 -88 -12 -4 -18 -1 -18 7 0 8 8 17 18 20 9 4
40 20 67 36 54 32 55 32 55 25z m271 -9 c-20 -24 -121 -90 -127 -83 -11 11 6
26 69 61 70 40 74 42 58 22z"/>
<path d="M1569 1504 c-19 -14 -40 -29 -48 -33 -7 -5 -12 -13 -10 -20 5 -15
109 36 109 54 0 25 -17 25 -51 -1z"/>
<path d="M2206 1408 c-16 -23 -13 -38 8 -38 12 0 46 41 46 55 0 14 -41 2 -54
-17z"/>
<path d="M853 860 c-26 -15 -33 -27 -33 -50 0 -36 16 -39 56 -8 41 32 64 59
58 69 -9 15 -47 10 -81 -11z"/>
<path d="M1051 745 c-12 -24 -26 -47 -32 -50 -11 -8 -12 -55 -1 -55 11 0 43
36 76 85 24 37 25 41 9 53 -25 18 -27 16 -52 -33z"/>
<path d="M1470 772 c0 -33 60 -141 75 -136 20 8 13 54 -18 107 -28 48 -57 62
-57 29z"/>
<path d="M1289 734 c-15 -42 -24 -150 -11 -157 23 -15 45 54 46 147 1 39 -21
45 -35 10z"/>
</g>
</svg>
